<svg width="14" height="14" viewBox="0 0 14 14" fill="none" xmlns="http://www.w3.org/2000/svg">
<path d="M7.62207 12.25H10.5V13.125H3.09668L0.341797 10.3633C0.232422 10.2539 0.148112 10.1263 0.0888672 9.98047C0.0296224 9.83008 0 9.67513 0 9.51562C0 9.35612 0.0296224 9.20345 0.0888672 9.05762C0.148112 8.90723 0.234701 8.77507 0.348633 8.66113L8.53125 0.47168L13.959 5.90625L7.62207 12.25ZM8.53125 1.70898L3.67773 6.5625L7.875 10.7529L12.7217 5.90625L8.53125 1.70898ZM6.37793 12.25L7.25293 11.375L3.0625 7.17773L0.970703 9.27637C0.906901 9.34017 0.875 9.41992 0.875 9.51562C0.875 9.61133 0.906901 9.69108 0.970703 9.75488L3.45898 12.25H6.37793Z" fill="#BEBBB8"/>
</svg>
