<svg width="16" height="16" viewBox="0 0 16 16" fill="#1461F8" xmlns="http://www.w3.org/2000/svg">
<path d="M10.1924 4.06738L10.8076 4.68262L5.6875 9.80273L3.19238 7.30762L3.80762 6.69238L5.6875 8.57227L10.1924 4.06738ZM7 0C7.64258 0 8.26237 0.0843099 8.85938 0.25293C9.45638 0.416992 10.0146 0.651693 10.5342 0.957031C11.0537 1.25781 11.5254 1.6224 11.9492 2.05078C12.3776 2.47461 12.7422 2.94629 13.043 3.46582C13.3483 3.98535 13.583 4.54362 13.7471 5.14062C13.9157 5.73763 14 6.35742 14 7C14 7.64258 13.9157 8.26237 13.7471 8.85938C13.583 9.45638 13.3483 10.0146 13.043 10.5342C12.7422 11.0537 12.3776 11.5277 11.9492 11.9561C11.5254 12.3799 11.0537 12.7445 10.5342 13.0498C10.0146 13.3506 9.45638 13.5853 8.85938 13.7539C8.26237 13.918 7.64258 14 7 14C6.35742 14 5.73763 13.918 5.14062 13.7539C4.54362 13.5853 3.98535 13.3506 3.46582 13.0498C2.94629 12.7445 2.47233 12.3799 2.04395 11.9561C1.62012 11.5277 1.25553 11.0537 0.950195 10.5342C0.649414 10.0146 0.414714 9.45866 0.246094 8.86621C0.0820312 8.26921 0 7.64714 0 7C0 6.35742 0.0820312 5.73763 0.246094 5.14062C0.414714 4.54362 0.649414 3.98535 0.950195 3.46582C1.25553 2.94629 1.62012 2.47461 2.04395 2.05078C2.47233 1.6224 2.94629 1.25781 3.46582 0.957031C3.98535 0.651693 4.54134 0.416992 5.13379 0.25293C5.73079 0.0843099 6.35286 0 7 0ZM7 13.125C7.56055 13.125 8.10059 13.0521 8.62012 12.9062C9.14421 12.7604 9.63184 12.5553 10.083 12.291C10.5387 12.0221 10.9535 11.7008 11.3271 11.3271C11.7008 10.9535 12.0199 10.541 12.2842 10.0898C12.5531 9.63411 12.7604 9.14648 12.9062 8.62695C13.0521 8.10742 13.125 7.5651 13.125 7C13.125 6.43945 13.0521 5.89941 12.9062 5.37988C12.7604 4.85579 12.5531 4.36816 12.2842 3.91699C12.0199 3.46126 11.7008 3.04655 11.3271 2.67285C10.9535 2.29915 10.5387 1.98014 10.083 1.71582C9.63184 1.44694 9.14421 1.23958 8.62012 1.09375C8.10059 0.947917 7.56055 0.875 7 0.875C6.43945 0.875 5.89714 0.947917 5.37305 1.09375C4.85352 1.23958 4.36589 1.44694 3.91016 1.71582C3.45898 1.98014 3.04655 2.29915 2.67285 2.67285C2.29915 3.04655 1.97786 3.46126 1.70898 3.91699C1.44466 4.36816 1.23958 4.85579 1.09375 5.37988C0.947917 5.89941 0.875 6.43945 0.875 7C0.875 7.56055 0.947917 8.10286 1.09375 8.62695C1.23958 9.14648 1.44466 9.63411 1.70898 10.0898C1.97786 10.541 2.29915 10.9535 2.67285 11.3271C3.04655 11.7008 3.45898 12.0221 3.91016 12.291C4.36589 12.5553 4.85352 12.7604 5.37305 12.9062C5.89258 13.0521 6.4349 13.125 7 13.125Z" fill="#1461F8"/>
</svg>
