<svg width="16" height="16" viewBox="0 0 16 16" fill="none" xmlns="http://www.w3.org/2000/svg">
<path d="M11.6484 4.64844L12.3516 5.35156L6.5 11.2031L3.64844 8.35156L4.35156 7.64844L6.5 9.79688L11.6484 4.64844ZM8 0C8.73438 0 9.44271 0.0963542 10.125 0.289062C10.8073 0.476562 11.4453 0.744792 12.0391 1.09375C12.6328 1.4375 13.1719 1.85417 13.6562 2.34375C14.1458 2.82812 14.5625 3.36719 14.9062 3.96094C15.2552 4.55469 15.5234 5.19271 15.7109 5.875C15.9036 6.55729 16 7.26562 16 8C16 8.73438 15.9036 9.44271 15.7109 10.125C15.5234 10.8073 15.2552 11.4453 14.9062 12.0391C14.5625 12.6328 14.1458 13.1745 13.6562 13.6641C13.1719 14.1484 12.6328 14.5651 12.0391 14.9141C11.4453 15.2578 10.8073 15.526 10.125 15.7188C9.44271 15.9062 8.73438 16 8 16C7.26562 16 6.55729 15.9062 5.875 15.7188C5.19271 15.526 4.55469 15.2578 3.96094 14.9141C3.36719 14.5651 2.82552 14.1484 2.33594 13.6641C1.85156 13.1745 1.4349 12.6328 1.08594 12.0391C0.742188 11.4453 0.473958 10.8099 0.28125 10.1328C0.09375 9.45052 0 8.73958 0 8C0 7.26562 0.09375 6.55729 0.28125 5.875C0.473958 5.19271 0.742188 4.55469 1.08594 3.96094C1.4349 3.36719 1.85156 2.82812 2.33594 2.34375C2.82552 1.85417 3.36719 1.4375 3.96094 1.09375C4.55469 0.744792 5.1901 0.476562 5.86719 0.289062C6.54948 0.0963542 7.26042 0 8 0ZM8 15C8.64062 15 9.25781 14.9167 9.85156 14.75C10.4505 14.5833 11.0078 14.349 11.5234 14.0469C12.0443 13.7396 12.5182 13.3724 12.9453 12.9453C13.3724 12.5182 13.737 12.0469 14.0391 11.5312C14.3464 11.0104 14.5833 10.4531 14.75 9.85938C14.9167 9.26562 15 8.64583 15 8C15 7.35938 14.9167 6.74219 14.75 6.14844C14.5833 5.54948 14.3464 4.99219 14.0391 4.47656C13.737 3.95573 13.3724 3.48177 12.9453 3.05469C12.5182 2.6276 12.0443 2.26302 11.5234 1.96094C11.0078 1.65365 10.4505 1.41667 9.85156 1.25C9.25781 1.08333 8.64062 1 8 1C7.35938 1 6.73958 1.08333 6.14062 1.25C5.54688 1.41667 4.98958 1.65365 4.46875 1.96094C3.95312 2.26302 3.48177 2.6276 3.05469 3.05469C2.6276 3.48177 2.26042 3.95573 1.95312 4.47656C1.65104 4.99219 1.41667 5.54948 1.25 6.14844C1.08333 6.74219 1 7.35938 1 8C1 8.64062 1.08333 9.26042 1.25 9.85938C1.41667 10.4531 1.65104 11.0104 1.95312 11.5312C2.26042 12.0469 2.6276 12.5182 3.05469 12.9453C3.48177 13.3724 3.95312 13.7396 4.46875 14.0469C4.98958 14.349 5.54688 14.5833 6.14062 14.75C6.73438 14.9167 7.35417 15 8 15Z" fill="#1461F8"/>
</svg>
