<svg width="368" height="132" viewBox="0 0 368 132" fill="none" xmlns="http://www.w3.org/2000/svg">
<path d="M113.225 19.14C110.972 21.3027 108.95 23.2441 106.556 25.5375C92.2618 12.9738 75.9159 7.30052 57.0954 10.4591C42.4797 12.9135 30.7005 20.2767 21.5167 31.8345C5.56304 51.9023 6.58906 83.1054 23.4078 102.368C41.685 123.311 75.2922 130.232 103.236 109.38C105.147 111.623 107.129 113.966 109.121 116.3C87.2524 136.509 45.769 139.496 18.4889 111.603C-7.43322 85.1172 -5.90425 42.6077 21.8587 16.8968C46.9861 -6.3697 90.6725 -5.59515 113.225 19.14Z" fill="white"/>
<path d="M65.7462 105.306C65.7462 108.323 65.7462 111.069 65.7462 114.6C49.1991 113.775 36.1525 107.016 26.9686 93.9892C14.4653 76.2652 13.6304 57.4146 24.8764 38.7853C33.8792 23.8677 47.6198 16.1122 65.6456 14.9353C65.6456 18.2246 65.6456 20.9707 65.6456 24.26C51.9653 26.1511 40.4377 31.9954 32.994 44.2473C28.1456 52.2342 26.7373 60.895 27.6527 70.1192C29.423 88.0343 44.3104 102.057 65.7462 105.306Z" fill="white"/>
<path d="M124.199 67.5742C124.058 83.9503 114.1 93.9792 98.1664 93.8082C82.5749 93.6372 73.2703 83.7793 73.4514 67.5943C73.6224 51.3691 83.6613 41.9438 100.621 42.0545C115.317 42.1349 124.33 51.9123 124.199 67.5742ZM84.4862 67.8156C84.4862 68.8115 84.4359 69.8174 84.4962 70.8132C84.9589 79.0013 89.918 84.584 97.0901 85.0468C106.445 85.6402 111.475 82.1498 112.873 73.0061C113.506 68.8718 113.114 64.3553 112.159 60.2513C110.65 53.7431 106.063 50.6851 99.3433 50.5745C89.8577 50.3934 84.4962 56.6199 84.4862 67.8156Z" fill="white"/>
<path d="M368 67.6245C367.949 83.8196 357.82 93.9591 341.856 93.7981C326.677 93.6472 317.041 83.8397 317.041 68.56C317.041 51.8419 327.009 41.9941 343.878 42.0444C359.007 42.0846 368.05 51.681 368 67.6245ZM357.206 68.9925C357.106 66.689 357.156 65.3512 356.965 64.0435C355.617 54.759 350.105 49.981 341.534 50.5845C333.497 51.1478 328.548 56.8714 328.357 65.8541C328.307 68.0168 328.216 70.1896 328.428 72.3321C329.162 79.5042 334.262 84.6343 340.891 85.0367C349.914 85.5799 354.36 82.5521 356.311 74.4144C356.814 72.3321 357.015 70.1795 357.206 68.9925Z" fill="white"/>
<path d="M271.725 67.6346C271.755 83.729 261.937 93.7981 246.235 93.778C230.573 93.7579 221.198 84.3326 221.148 68.55C221.098 52.033 230.724 42.0846 246.799 42.0444C262.873 42.0042 271.695 51.0674 271.725 67.6346ZM232.133 67.8961C231.891 74.2132 233.128 80.148 239.113 83.3669C244.354 86.1734 250.309 86.4751 255.228 82.7332C261.817 77.7338 261.515 70.1996 260.6 63.0376C259.895 57.5554 257.371 52.8679 251.335 51.2182C240.039 48.1301 232.153 54.9803 232.133 67.8961Z" fill="white"/>
<path d="M134.56 92.1987C134.56 87.1592 134.56 82.3811 134.56 77.6131C134.56 68.4695 134.55 59.3258 134.55 50.1922C134.55 42.9397 134.58 42.8994 141.732 43.3118C142.698 43.3722 143.653 43.6438 144.74 43.845C144.951 45.7763 145.152 47.5568 145.474 50.4236C147.013 49.0556 148.009 48.1905 148.975 47.3053C154.145 42.5675 160.16 40.8675 166.99 42.6379C173.871 44.4183 177.572 49.4579 177.874 56.0164C178.417 67.8961 178.025 79.8261 178.025 92.1183C175.259 92.1183 172.191 92.1183 168.238 92.1183C168.238 86.7568 168.318 81.345 168.217 75.9333C168.107 70.4712 168.228 64.9388 167.473 59.5572C166.578 53.2301 163.118 50.5342 157.464 50.5845C151.771 50.6348 146.681 54.2259 146.017 59.7885C145.212 66.518 145.273 73.3481 145.072 80.1379C144.951 84.0811 145.052 88.0242 145.052 92.2289C141.36 92.1987 138.282 92.1987 134.56 92.1987Z" fill="white"/>
<path d="M279.39 82.5421C283.081 83.5882 286.381 84.7249 289.761 85.3888C291.642 85.7509 293.955 85.8817 295.575 85.097C297.566 84.1213 300.182 82.2403 300.423 80.4699C300.675 78.6291 298.824 75.9534 297.124 74.5552C295.011 72.8049 292.135 71.9499 289.57 70.773C280.758 66.7293 277.64 61.6293 279.249 53.7531C280.516 47.5065 287.638 42.3864 295.555 42.0645C297.224 41.9941 298.904 41.9841 300.564 42.0846C308.42 42.5775 309.597 44.197 308.038 51.7212C303.894 51.2786 299.769 50.3532 295.726 50.6248C293.774 50.7555 290.736 52.888 290.415 54.5478C290.012 56.5898 291.32 59.7483 292.97 61.227C295.092 63.1281 298.291 63.8423 301.017 65.0896C308.682 68.5801 312.303 73.9416 311.357 80.3894C310.382 87.0887 304.668 92.3597 296.822 93.3656C293.704 93.7679 290.465 93.778 287.347 93.4159C278.847 92.4401 278.344 91.6354 279.39 82.5421Z" fill="white"/>
<path d="M216.943 43.2716C216.943 46.4402 216.943 48.5627 216.943 51.4496C214.147 51.4496 211.532 51.5502 208.926 51.4194C206.06 51.2786 204.49 52.3046 204.5 55.3424C204.541 62.4844 204.289 69.6363 204.611 76.7581C204.923 83.6083 206.925 84.8053 216.712 85.1574C217.688 92.6614 217.275 93.1845 210.043 93.6975C200.286 94.3815 194.854 89.8349 194.391 80.0172C194.019 72.0606 194.119 64.0837 194.19 56.1069C194.22 52.8679 193.345 50.9466 189.673 51.4194C186.666 51.8117 185.549 50.504 185.579 47.4461C185.599 44.5793 186.324 42.8894 189.492 43.2515C192.973 43.6438 194.14 42.1148 194.21 38.7048C194.381 30.5067 194.773 30.2653 204.46 29.2996C204.46 32.3073 204.611 35.2546 204.42 38.1817C204.168 42.0545 205.738 43.684 209.671 43.3018C211.944 43.0905 214.258 43.2716 216.943 43.2716Z" fill="white"/>
<path d="M52.8505 80.0776C50.7784 82.2202 48.847 84.232 47.0565 86.0828C35.0259 79.132 32.2899 53.6726 47.7305 41.8935C49.7624 44.0059 51.8547 46.1787 53.8765 48.281C44.5719 61.75 44.3506 67.3932 52.8505 80.0776Z" fill="white"/>
</svg>
