<svg width="34" height="34" viewBox="0 0 34 34" fill="none" xmlns="http://www.w3.org/2000/svg">
<path d="M17 0C18.5605 0 20.0658 0.204753 21.5156 0.614258C22.9655 1.0127 24.3158 1.58268 25.5664 2.32422C26.8281 3.06576 27.9736 3.95671 29.0029 4.99707C30.0433 6.02637 30.9342 7.17188 31.6758 8.43359C32.4173 9.68424 32.9873 11.0345 33.3857 12.4844C33.7952 13.9342 34 15.4395 34 17C34 18.5605 33.7952 20.0658 33.3857 21.5156C32.9873 22.9655 32.4173 24.3213 31.6758 25.583C30.9342 26.8337 30.0433 27.9792 29.0029 29.0195C27.9736 30.0488 26.8281 30.9342 25.5664 31.6758C24.3158 32.4173 22.9655 32.9928 21.5156 33.4023C20.0658 33.8008 18.5605 34 17 34C15.4395 34 13.9342 33.8008 12.4844 33.4023C11.0345 32.9928 9.67871 32.4173 8.41699 31.6758C7.16634 30.9342 6.02083 30.0488 4.98047 29.0195C3.95117 27.9792 3.06576 26.8337 2.32422 25.583C1.58268 24.3213 1.00716 22.9655 0.597656 21.5156C0.199219 20.0658 0 18.5605 0 17C0 15.4395 0.199219 13.9342 0.597656 12.4844C1.00716 11.0345 1.58268 9.68424 2.32422 8.43359C3.06576 7.17188 3.95117 6.02637 4.98047 4.99707C6.02083 3.95671 7.16634 3.06576 8.41699 2.32422C9.67871 1.58268 11.0345 1.0127 12.4844 0.614258C13.9342 0.204753 15.4395 0 17 0ZM15.0576 22.3623C15.3011 22.3623 15.5335 22.318 15.7549 22.2295C15.9762 22.1299 16.1699 21.9971 16.3359 21.8311L23.458 14.709C23.624 14.543 23.7513 14.3493 23.8398 14.1279C23.9284 13.9066 23.9727 13.6797 23.9727 13.4473C23.9727 13.2038 23.9229 12.9714 23.8232 12.75C23.7347 12.5286 23.6074 12.3405 23.4414 12.1855C23.2865 12.0195 23.0983 11.8923 22.877 11.8037C22.6556 11.7041 22.4232 11.6543 22.1797 11.6543C21.9473 11.6543 21.7148 11.6986 21.4824 11.7871C21.2611 11.8757 21.0674 12.0029 20.9014 12.1689L15.0576 18.0127L13.0986 16.0537C12.7445 15.6995 12.3184 15.5225 11.8203 15.5225C11.5768 15.5225 11.3444 15.5723 11.123 15.6719C10.9017 15.7604 10.708 15.8877 10.542 16.0537C10.376 16.2197 10.2432 16.4134 10.1436 16.6348C10.055 16.8451 10.0107 17.0719 10.0107 17.3154C10.0107 17.5479 10.055 17.7803 10.1436 18.0127C10.2432 18.234 10.376 18.4277 10.542 18.5938L13.7793 21.8311C13.9453 21.9971 14.139 22.1299 14.3604 22.2295C14.5928 22.318 14.8252 22.3623 15.0576 22.3623Z" fill="#86C686"/>
</svg>
